<svg width="16" height="13" viewBox="0 0 16 13" fill="none" xmlns="http://www.w3.org/2000/svg">
<path fill-rule="evenodd" clip-rule="evenodd" d="M3.32333 0C2.41 0 1.73467 0.799333 1.76533 1.66533C1.794 2.49867 1.75667 3.57667 1.48533 4.456C1.212 5.33733 0.752 5.896 0 5.968V6.778C0.752 6.84933 1.21267 7.408 1.48467 8.29C1.75667 9.16933 1.794 10.2473 1.76467 11.08C1.73467 11.9467 2.41 12.746 3.32333 12.746H12.678C13.5913 12.746 14.2667 11.9467 14.236 11.08C14.2073 10.2473 14.2447 9.16933 14.516 8.29C14.7887 7.408 15.248 6.85 16 6.778V5.968C15.248 5.896 14.7887 5.33733 14.516 4.456C14.2447 3.576 14.2073 2.498 14.236 1.66533C14.2667 0.798667 13.5907 0 12.678 0H3.32333ZM10.8467 7.846C10.8467 9.03933 9.95667 9.76267 8.48 9.76267H5.966C5.89404 9.76267 5.82502 9.73408 5.77414 9.68319C5.72325 9.63231 5.69467 9.5633 5.69467 9.49133V3.254C5.69484 3.18215 5.72351 3.11331 5.77437 3.06257C5.82524 3.01183 5.89415 2.98333 5.966 2.98333H8.466C9.69733 2.98333 10.506 3.65 10.506 4.67467C10.506 5.39333 9.962 6.03667 9.26933 6.15V6.18733C10.2127 6.29067 10.8473 6.944 10.8473 7.846H10.8467ZM8.20667 3.84267H6.77333V5.868H7.98067C8.914 5.868 9.42867 5.492 9.42867 4.82C9.42867 4.19067 8.986 3.84267 8.20667 3.84267ZM6.77333 6.67133V8.90267H8.26C9.23133 8.90267 9.74667 8.51267 9.74667 7.78C9.74667 7.04667 9.21733 6.67133 8.19733 6.67133H6.77333V6.67133Z" fill="#563D7C"/>
</svg>
