<svg width="15" height="16" viewBox="0 0 15 16" fill="none" xmlns="http://www.w3.org/2000/svg">
<path d="M14.0032 4.70669C14.0031 4.43836 13.9465 4.20125 13.8321 3.99775C13.7197 3.79764 13.5513 3.62991 13.3255 3.4973C11.4618 2.40736 9.59617 1.32075 7.73299 0.229691C7.23068 -0.0644199 6.74366 -0.0536976 6.24508 0.244636C5.50324 0.688358 1.78909 2.84652 0.682319 3.49669C0.22652 3.7643 0.0047279 4.17386 0.00461835 4.70619C0.00390625 6.89814 0.00461835 9.09002 0.00390625 11.282C0.0040158 11.5445 0.0581902 11.777 0.16758 11.9774C0.280037 12.1836 0.450722 12.3559 0.681716 12.4915C1.78854 13.1417 5.50318 15.2997 6.24486 15.7435C6.74366 16.042 7.23068 16.0527 7.73315 15.7585C9.59639 14.6674 11.4621 13.5808 13.3262 12.4909C13.5571 12.3553 13.7278 12.1829 13.8403 11.9769C13.9495 11.7764 14.0038 11.5439 14.0039 11.2814C14.0039 11.2814 14.0039 6.89869 14.0032 4.70669Z" fill="#5C8DBC"/>
<path d="M7.02532 7.97275L0.16758 11.9774C0.280037 12.1836 0.450722 12.3559 0.681716 12.4915C1.78854 13.1417 5.50318 15.2997 6.24486 15.7435C6.74366 16.042 7.23068 16.0527 7.73315 15.7585C9.59639 14.6674 11.4621 13.5808 13.3262 12.4909C13.5571 12.3553 13.7278 12.1829 13.8403 11.9769L7.02532 7.97275Z" fill="#1A4674"/>
<path d="M4.99414 9.15897C5.39319 9.86552 6.14336 10.3421 7.00391 10.3421C7.86977 10.3421 8.62421 9.85947 9.02123 9.14536L7.02532 7.97275L4.99414 9.15897Z" fill="#1A4674"/>
<path d="M14.0032 4.70669C14.0031 4.43836 13.9465 4.20125 13.8321 3.99775L7.02532 7.97275L13.8403 11.9769C13.9495 11.7764 14.0038 11.5439 14.0039 11.2814C14.0039 11.2814 14.0039 6.89869 14.0032 4.70669Z" fill="#1A4674"/>
<path d="M9.02123 9.14536C8.62421 9.85947 7.86977 10.3421 7.00391 10.3421C6.14336 10.3421 5.39319 9.86552 4.99414 9.15897C4.79368 8.80443 4.6884 8.40278 4.68881 7.99408C4.68881 6.69736 5.72536 5.64614 7.00391 5.64614C7.85892 5.64614 8.60515 6.11675 9.00617 6.81608L11.0297 5.6343C10.2254 4.22619 8.72379 3.27886 7.00391 3.27886C4.43618 3.27886 2.35471 5.38997 2.35471 7.99408C2.35471 8.84841 2.57881 9.64958 2.97046 10.3406C3.77272 11.7562 5.2786 12.7094 7.00391 12.7094C8.73239 12.7094 10.2406 11.7524 11.0417 10.3326L9.02123 9.14536Z" fill="white"/>
</svg>
