<svg width="14" height="14" viewBox="0 0 14 14" fill="none" xmlns="http://www.w3.org/2000/svg">
<path d="M1.951 12.6005L0.828003 0H13.172L12.0475 12.5985L6.9925 14L1.951 12.6005Z" fill="#1572B6"/>
<path d="M7 12.929L11.085 11.7965L12.046 1.0305H7V12.929Z" fill="#33A9DC"/>
<path d="M7 5.5955H9.045L9.186 4.013H7V2.4675H10.875L10.4585 7.141H7V5.5955Z" fill="white"/>
<path d="M7.0095 9.609L7.0025 9.611L5.2815 9.146L5.1715 7.9135H3.62L3.8365 10.34L7.002 11.219L7.0095 11.217V9.609Z" fill="#EBEBEB"/>
<path d="M8.9135 7.0755L8.7275 9.145L7.004 9.61V11.218L10.172 10.34L10.464 7.0755H8.9135Z" fill="white"/>
<path d="M7.0055 2.4675V4.013H3.2725L3.134 2.4675H7.0055ZM7 5.5955V7.141H5.3005L5.1625 5.5955H7Z" fill="#EBEBEB"/>
</svg>
