<svg width="9" height="14" viewBox="0 0 9 14" fill="none" xmlns="http://www.w3.org/2000/svg">
<path d="M2.25 14C3.492 14 4.5 12.9547 4.5 11.6667V9.33333H2.25C1.008 9.33333 0 10.3787 0 11.6667C0 12.9547 1.008 14 2.25 14Z" fill="#0ACF83"/>
<path d="M0 7C0 5.712 1.008 4.66667 2.25 4.66667H4.5V9.33333H2.25C1.008 9.33333 0 8.288 0 7Z" fill="#A259FF"/>
<path d="M0 2.33333C0 1.04533 1.008 0 2.25 0H4.5V4.66667H2.25C1.008 4.66667 0 3.62133 0 2.33333Z" fill="#F24E1E"/>
<path d="M4.5 0H6.75C7.992 0 9 1.04533 9 2.33333C9 3.62133 7.992 4.66667 6.75 4.66667L4.5 4.66667V0Z" fill="#FF7262"/>
<path d="M9 7C9 8.288 7.992 9.33333 6.75 9.33333C5.508 9.33333 4.5 8.288 4.5 7C4.5 5.712 5.508 4.66667 6.75 4.66667C7.992 4.66667 9 5.712 9 7Z" fill="#1ABCFE"/>
</svg>
