<svg width="14" height="14" viewBox="0 0 14 14" fill="none" xmlns="http://www.w3.org/2000/svg">
<path d="M1.95101 12.6005L0.827515 0H13.1725L12.0475 12.5985L6.99251 14L1.95101 12.6005Z" fill="#E44F26"/>
<path d="M7.00001 12.929L11.085 11.7965L12.046 1.0305H7.00001V12.929Z" fill="#F1662A"/>
<path d="M7.00001 5.7035H4.95501L4.81401 4.121H7.00001V2.5755H3.12501L3.54151 7.249H7.00001V5.7035ZM7.00001 9.717L6.99301 9.719L5.27201 9.2545L5.16201 8.022H3.61051L3.82701 10.448L6.99301 11.327L7.00001 11.325V9.717Z" fill="#EBEBEB"/>
<path d="M6.99451 5.7035V7.249H8.89751L8.71851 9.2535L6.99451 9.7185V11.3265L10.163 10.448L10.186 10.187L10.549 6.1185L10.587 5.7035H6.99451ZM6.99451 2.5755V4.121H10.7275L10.866 2.5755H6.99451Z" fill="white"/>
</svg>
