<svg width="14" height="14" viewBox="0 0 14 14" fill="none" xmlns="http://www.w3.org/2000/svg">
<path d="M6.94957 0C3.39549 0 3.6174 1.54932 3.6174 1.54932L3.62134 3.15446H7.01294V3.63636H2.27426C2.27426 3.63636 0 3.37709 0 6.98187C0 10.5868 1.98503 10.4589 1.98503 10.4589H3.16968V8.78611C3.16968 8.78611 3.10582 6.79071 5.12302 6.79071H8.48688C8.48688 6.79071 10.3768 6.8214 10.3768 4.95462V1.868C10.3768 1.868 10.6638 0 6.94957 0ZM5.07944 1.07942C5.15959 1.07935 5.23896 1.09517 5.31302 1.12596C5.38708 1.15676 5.45437 1.20194 5.51104 1.2589C5.56771 1.31587 5.61265 1.38351 5.64329 1.45796C5.67393 1.53241 5.68966 1.61219 5.68959 1.69276C5.68966 1.77332 5.67393 1.85311 5.64329 1.92756C5.61265 2.002 5.56771 2.06964 5.51104 2.12661C5.45437 2.18358 5.38708 2.22876 5.31302 2.25955C5.23896 2.29035 5.15959 2.30616 5.07944 2.30609C4.9993 2.30616 4.91992 2.29035 4.84586 2.25955C4.77181 2.22876 4.70452 2.18358 4.64784 2.12661C4.59117 2.06964 4.54623 2.002 4.51559 1.92756C4.48496 1.85311 4.46922 1.77332 4.4693 1.69276C4.46922 1.61219 4.48496 1.53241 4.51559 1.45796C4.54623 1.38351 4.59117 1.31587 4.64784 1.2589C4.70452 1.20194 4.77181 1.15676 4.84586 1.12596C4.91992 1.09517 4.9993 1.07935 5.07944 1.07942Z" fill="url(#paint0_linear_11_46)"/>
<path d="M7.05049 14C10.6046 14 10.3827 12.4507 10.3827 12.4507L10.3787 10.8456H6.98706V10.3637H11.7257C11.7257 10.3637 14 10.623 14 7.01807C14 3.41323 12.015 3.54108 12.015 3.54108H10.8303V5.21384C10.8303 5.21384 10.8942 7.20924 8.87698 7.20924H5.51312C5.51312 7.20924 3.62321 7.17854 3.62321 9.04538V12.1321C3.62321 12.1321 3.33628 14 7.05049 14ZM8.92061 12.9207C8.84047 12.9208 8.7611 12.9049 8.68704 12.8741C8.61298 12.8433 8.54569 12.7982 8.48901 12.7412C8.43234 12.6842 8.3874 12.6166 8.35677 12.5422C8.32613 12.4677 8.3104 12.3879 8.31047 12.3074C8.31039 12.2268 8.32612 12.147 8.35675 12.0725C8.38738 11.9981 8.43232 11.9304 8.489 11.8735C8.54567 11.8165 8.61296 11.7713 8.68702 11.7405C8.76108 11.7097 8.84046 11.6939 8.92061 11.694C9.00076 11.6939 9.08013 11.7097 9.15419 11.7405C9.22825 11.7713 9.29554 11.8165 9.35221 11.8734C9.40888 11.9304 9.45382 11.9981 9.48446 12.0725C9.5151 12.1469 9.53083 12.2267 9.53076 12.3073C9.53083 12.3879 9.5151 12.4676 9.48446 12.5421C9.45382 12.6165 9.40888 12.6842 9.35221 12.7412C9.29554 12.7981 9.22825 12.8433 9.15419 12.8741C9.08013 12.9049 9.00076 12.9208 8.92061 12.9207Z" fill="url(#paint1_linear_11_46)"/>
<defs>
<linearGradient id="paint0_linear_11_46" x1="1.81426" y1="1.68546" x2="11.1495" y2="10.9481" gradientUnits="userSpaceOnUse">
<stop stop-color="#387EB8"/>
<stop offset="1" stop-color="#366994"/>
</linearGradient>
<linearGradient id="paint1_linear_11_46" x1="5.60396" y1="5.69299" x2="13.0912" y2="12.7341" gradientUnits="userSpaceOnUse">
<stop stop-color="#FFE052"/>
<stop offset="1" stop-color="#FFC331"/>
</linearGradient>
</defs>
</svg>
