<svg width="16" height="14" viewBox="0 0 16 14" fill="none" xmlns="http://www.w3.org/2000/svg">
<path d="M13.1552 4.53768C12.9849 4.48023 12.8132 4.427 12.6402 4.37805C12.6693 4.26127 12.696 4.1459 12.7198 4.03255C13.1096 2.17129 12.8547 0.671817 11.9842 0.178119C11.1495 -0.295172 9.78444 0.198341 8.40581 1.37831C8.26994 1.49481 8.13709 1.61467 8.00737 1.73777C7.92054 1.65591 7.83217 1.57564 7.74231 1.497C6.29744 0.235344 4.84919 -0.296402 3.97956 0.19871C3.14563 0.673476 2.89869 2.08308 3.24969 3.84705C3.28461 4.02175 3.32404 4.19555 3.36794 4.36828C3.16294 4.42557 2.96512 4.48654 2.77581 4.55145C1.08181 5.13231 0 6.04256 0 6.98675C0 7.96191 1.16138 8.94003 2.92575 9.53312C3.06879 9.581 3.21302 9.62537 3.35831 9.66619C3.31113 9.85223 3.26924 10.0395 3.23269 10.2279C2.89806 11.9612 3.15937 13.3375 3.99106 13.8093C4.85006 14.2965 6.29181 13.7957 7.69562 12.5889C7.80946 12.4907 7.92079 12.3898 8.0295 12.2863C8.16997 12.4195 8.31419 12.549 8.462 12.6744C9.82187 13.8251 11.1649 14.2898 11.9958 13.8168C12.8539 13.3282 13.1329 11.8497 12.7708 10.0508C12.7422 9.90992 12.7102 9.7697 12.6748 9.63029C12.7761 9.60079 12.8754 9.57043 12.9723 9.53883C14.8066 8.9412 16 7.97494 16 6.98675C16 6.03912 14.8833 5.12272 13.1552 4.53768ZM12.7574 8.90081C12.6699 8.92927 12.5801 8.95675 12.4886 8.98348C12.2861 8.35302 12.0129 7.68267 11.6784 6.99001C11.9976 6.31388 12.2603 5.65207 12.4571 5.02573C12.6208 5.07232 12.7796 5.12143 12.9328 5.17324C14.4134 5.67456 15.3165 6.41566 15.3165 6.98675C15.3165 7.59502 14.3411 8.38468 12.7574 8.90081ZM12.1003 10.1814C12.2604 10.9768 12.2832 11.6959 12.1771 12.2582C12.0819 12.7634 11.8903 13.1001 11.6532 13.2351C11.1491 13.5221 10.0707 13.149 8.90781 12.1648C8.77033 12.0482 8.63618 11.9279 8.5055 11.804C8.95637 11.3191 9.40694 10.7554 9.84669 10.1293C10.6202 10.0618 11.3509 9.9514 12.0136 9.80074C12.0455 9.92694 12.0744 10.0539 12.1003 10.1814ZM5.45475 13.1854C4.96213 13.3565 4.56975 13.3614 4.33256 13.2269C3.82788 12.9407 3.61806 11.8356 3.90425 10.3533C3.93827 10.1781 3.97722 10.0039 4.02106 9.83086C4.67644 9.97346 5.40188 10.076 6.17719 10.1378C6.61994 10.7505 7.0835 11.3136 7.55069 11.8066C7.4514 11.9011 7.34977 11.9932 7.24587 12.0827C6.62506 12.6164 6.003 12.995 5.45475 13.1854ZM3.14687 8.89706C2.36669 8.63478 1.72238 8.29395 1.28075 7.92202C0.883875 7.58783 0.683563 7.25597 0.683563 6.98675C0.683563 6.41376 1.55213 5.68292 3.00081 5.18621C3.17663 5.12598 3.36063 5.06912 3.55156 5.01577C3.75181 5.65625 4.01444 6.32592 4.33138 7.0031C4.01031 7.69029 3.74394 8.37066 3.54175 9.0187C3.40913 8.98135 3.27747 8.94078 3.14687 8.89706ZM3.9205 3.71791C3.61981 2.20663 3.8195 1.06662 4.32206 0.780489C4.85731 0.475739 6.04094 0.910245 7.2885 1.99967C7.36985 2.07088 7.44989 2.14352 7.52856 2.21757C7.06369 2.7085 6.60438 3.26742 6.16556 3.87643C5.41306 3.94502 4.69275 4.05517 4.0305 4.20275C3.9897 4.04209 3.95302 3.88038 3.9205 3.71791ZM10.8222 5.39397C10.6658 5.12825 10.5035 4.86587 10.3356 4.60702C10.8461 4.67051 11.3352 4.75478 11.7946 4.8578C11.6567 5.29249 11.4848 5.74691 11.2825 6.21283C11.1346 5.93689 10.9812 5.66388 10.8222 5.39397ZM8.00769 2.69799C8.32294 3.03391 8.63869 3.40891 8.94925 3.81582C8.31925 3.78656 7.6882 3.78644 7.05819 3.81545C7.36906 3.4123 7.6875 3.03778 8.00769 2.69799ZM5.17513 5.39858C5.01815 5.66632 4.86754 5.93762 4.72344 6.21227C4.52444 5.74802 4.35413 5.29151 4.21506 4.85067C4.67156 4.75023 5.15837 4.66811 5.66563 4.60579C5.49584 4.86622 5.33229 5.1306 5.17513 5.39858ZM5.68019 9.41553C5.15613 9.358 4.662 9.28012 4.20563 9.18239C4.34688 8.73369 4.52094 8.26746 4.72425 7.79325C4.86893 8.0681 5.02016 8.33957 5.17781 8.60743C5.33994 8.8828 5.50781 9.15252 5.68019 9.41553ZM8.02656 11.3228C7.70256 10.9791 7.37944 10.5988 7.06388 10.1898C7.37025 10.2016 7.68256 10.2076 8 10.2076C8.32613 10.2076 8.6485 10.2005 8.96581 10.1866C8.65425 10.6029 8.33969 10.9838 8.02656 11.3228ZM11.2889 7.76903C11.5028 8.24847 11.6831 8.71223 11.8262 9.15325C11.3623 9.25738 10.8614 9.34122 10.3337 9.40348C10.5028 9.13983 10.6666 8.87289 10.8249 8.60282C10.9858 8.32831 11.1406 8.05031 11.2889 7.76903ZM10.2328 8.26697C9.99045 8.68103 9.73446 9.08723 9.46525 9.48493C8.9776 9.51889 8.48887 9.53577 8 9.53551C7.50206 9.53551 7.01775 9.52027 6.55137 9.49052C6.27514 9.09374 6.01427 8.68683 5.76931 8.27066C5.52551 7.85669 5.29785 7.43376 5.08669 7.00279C5.29731 6.57172 5.52435 6.14859 5.76731 5.73431C6.01019 5.31992 6.26892 4.91481 6.54306 4.51973C7.01888 4.48433 7.50681 4.46589 7.99994 4.46589C8.49531 4.46589 8.98394 4.48451 9.45963 4.52016C9.731 4.91465 9.98814 5.31843 10.2306 5.73074C10.4743 6.14412 10.7044 6.56518 10.9203 6.99326C10.7066 7.42572 10.4773 7.85056 10.2328 8.26697ZM11.6428 0.760451C12.1786 1.06434 12.3869 2.2898 12.0503 3.89683C12.0288 3.99936 12.0047 4.10379 11.9784 4.2097C11.3146 4.05898 10.5938 3.94693 9.83906 3.87729C9.39944 3.26158 8.94388 2.70181 8.48656 2.2172C8.60641 2.10358 8.72912 1.99291 8.85456 1.88529C10.0358 0.874348 11.1398 0.475186 11.6428 0.760451ZM8 5.58163C8.78906 5.58163 9.42875 6.21074 9.42875 6.98675C9.42875 7.76276 8.78906 8.39187 8 8.39187C7.21094 8.39187 6.57125 7.76276 6.57125 6.98675C6.57125 6.21074 7.21094 5.58163 8 5.58163Z" fill="#00D8FF"/>
</svg>
