<svg width="15" height="14" viewBox="0 0 15 14" fill="none" xmlns="http://www.w3.org/2000/svg">
<path d="M14.505 12.4851L11.622 13.8731C11.4592 13.9516 11.276 13.9775 11.0978 13.9472C10.9196 13.9169 10.7553 13.8319 10.6275 13.7041L1.19001 5.10006C1.07551 4.99616 1.00697 4.85103 0.999467 4.69659C0.991965 4.54216 1.04612 4.39107 1.15001 4.27656C1.16251 4.26306 1.17501 4.25006 1.18851 4.23806L1.95901 3.53806C2.0597 3.44643 2.18929 3.39295 2.3253 3.38692C2.4613 3.3809 2.59512 3.42269 2.70351 3.50506L14.071 12.1251C14.1569 12.1902 14.2592 12.2301 14.3665 12.2403C14.4738 12.2504 14.5818 12.2304 14.6784 12.1825C14.7749 12.1346 14.8562 12.0607 14.913 11.9691C14.9698 11.8775 15 11.7718 15 11.6641V11.6976C15 11.8621 14.9535 12.0233 14.866 12.1626C14.7784 12.3019 14.6533 12.4137 14.505 12.4851Z" fill="#0065A9"/>
<path d="M14.505 1.51506L11.622 0.12656C11.4592 0.0482807 11.276 0.0224972 11.0979 0.0527697C10.9197 0.0830421 10.7554 0.167877 10.6275 0.29556L1.19001 8.90006C1.07551 9.00396 1.00697 9.14909 0.999467 9.30353C0.991965 9.45796 1.04612 9.60905 1.15001 9.72356C1.16251 9.73706 1.17501 9.75006 1.18851 9.76206L1.95901 10.4621C2.0598 10.5541 2.18969 10.6078 2.32603 10.6138C2.46237 10.6199 2.5965 10.5778 2.70501 10.4951L14.071 1.87506C14.1569 1.80991 14.2592 1.77001 14.3665 1.75987C14.4738 1.74973 14.5818 1.76974 14.6784 1.81765C14.7749 1.86556 14.8562 1.93947 14.913 2.03106C14.9698 2.12265 15 2.22828 15 2.33606V2.30006C14.9995 2.13595 14.9528 1.9753 14.8652 1.83648C14.7777 1.69766 14.6529 1.58628 14.505 1.51506Z" fill="#007ACC"/>
<path d="M11.622 0.12656C11.4592 0.0482807 11.276 0.0224972 11.0979 0.0527697C10.9197 0.0830421 10.7554 0.167877 10.6275 0.29556C10.6993 0.224694 10.7904 0.176597 10.8895 0.157293C10.9885 0.13799 11.091 0.14834 11.1842 0.187047C11.2773 0.225754 11.357 0.291095 11.4132 0.374883C11.4694 0.458671 11.4996 0.557178 11.5 0.65806V13.3421C11.5001 13.4434 11.4701 13.5425 11.4138 13.6268C11.3575 13.7111 11.2775 13.7768 11.1838 13.8156C11.0902 13.8543 10.9871 13.8644 10.8878 13.8446C10.7884 13.8247 10.6971 13.7758 10.6255 13.7041C10.7533 13.8319 10.9176 13.9169 11.0958 13.9472C11.2739 13.9776 11.4571 13.9519 11.62 13.8736L14.5025 12.4876C14.6513 12.4166 14.7769 12.305 14.8649 12.1656C14.9529 12.0263 14.9998 11.8649 15 11.7001V2.30006C15.0001 2.13537 14.9536 1.97402 14.8659 1.83461C14.7782 1.69519 14.653 1.58338 14.5045 1.51206L11.622 0.12656Z" fill="#1F9CF0"/>
</svg>
